<svg xmlns="http://www.w3.org/2000/svg" viewBox="0 0 576 454.57"><defs><style>.cls-1{fill:#fff;}</style></defs><title>shopping-basked-one</title><g id="Layer_2" data-name="Layer 2"><g id="Layer_1-2" data-name="Layer 1"><path class="cls-1" d="M552,166.57H521.56L487.11,24.47a32,32,0,1,0-62.2,15.08l30.79,127h-327l30.79-127a32,32,0,1,0-62.2-15.08L62.86,166.57H24a24,24,0,0,0-24,24v16a24,24,0,0,0,24,24h8L58.11,413.36a48,48,0,0,0,47.52,41.21H470.37a48,48,0,0,0,47.52-41.21L544,230.57h8a24,24,0,0,0,24-24v-16A24,24,0,0,0,552,166.57Zm-352,200a24,24,0,0,1-48,0v-112a24,24,0,0,1,48,0Zm112,0a24,24,0,0,1-48,0v-112a24,24,0,1,1,48,0Zm112,0a24,24,0,0,1-48,0v-112a24,24,0,1,1,48,0Z"/></g></g></svg>