<svg id="Layer_1" data-name="Layer 1" xmlns="http://www.w3.org/2000/svg" viewBox="0 0 576 454.56"><defs><style>.cls-1{fill:none;}</style></defs><title>Artboard 1</title><path class="cls-1" d="M200,254.56v112a24,24,0,0,1-48,0v-112a24,24,0,0,1,48,0Z"/><path class="cls-1" d="M312,254.56v112a24,24,0,0,1-48,0v-112a24,24,0,1,1,48,0Z"/><path class="cls-1" d="M424,254.56v112a24,24,0,0,1-48,0v-112a24,24,0,1,1,48,0Z"/><path d="M552,166.56H521.56L487.11,24.46a32,32,0,1,0-62.2,15.08l30.79,127h-327l30.79-127a32,32,0,1,0-62.2-15.08L62.86,166.56H24a24,24,0,0,0-24,24v16a24,24,0,0,0,24,24h8L58.11,413.35a48,48,0,0,0,47.52,41.21H470.37a48,48,0,0,0,47.52-41.21L544,230.56h8a24,24,0,0,0,24-24v-16A24,24,0,0,0,552,166.56Zm-352,200a24,24,0,0,1-48,0v-112a24,24,0,0,1,48,0Zm112,0a24,24,0,0,1-48,0v-112a24,24,0,1,1,48,0Zm112,0a24,24,0,0,1-48,0v-112a24,24,0,1,1,48,0Z"/></svg>